<svg width="100" height="102" viewBox="0 0 100 102" fill="none" xmlns="http://www.w3.org/2000/svg"><ellipse cx="50" cy="51" rx="50" ry="51" fill="#CECECC" fill-opacity="0.4"></ellipse><ellipse cx="50" cy="51" rx="41" ry="40" fill="#CECECC"></ellipse><path d="M26.8071 69.2509C25.2438 68.9982 25.0422 67.0823 26.5692 66.6624C28.6826 66.0812 31.0858 65.5789 33.7184 65.1717C38.7198 64.398 44.3758 63.9941 50.1257 64.0001C55.8757 64.006 61.5202 64.4217 66.4999 65.2058C69.098 65.6149 71.4682 66.1169 73.552 66.6959C75.0898 67.1232 74.8796 69.0479 73.3033 69.2983C72.9834 69.3491 72.6566 69.301 72.3596 69.172C70.0738 68.1789 66.9307 67.352 63.1999 66.7646C59.2162 66.1373 54.7006 65.8048 50.1006 65.8001C45.5006 65.7953 40.9759 66.1184 36.9747 66.7373C33.2211 67.318 30.0504 68.1402 27.736 69.1308C27.4432 69.2561 27.1215 69.3018 26.8071 69.2509Z" fill="#2D2C2E"></path><ellipse cx="41" cy="50.5" rx="4" ry="4.5" fill="#2D2C2E"></ellipse><ellipse cx="60" cy="50.5" rx="4" ry="4.5" fill="#2D2C2E"></ellipse></svg>