<svg width="100" height="102" viewBox="0 0 100 102" fill="none" xmlns="http://www.w3.org/2000/svg"><ellipse cx="50" cy="51" rx="50" ry="51" fill="#FD3E32" fill-opacity="0.4"></ellipse><ellipse cx="50" cy="51" rx="41" ry="40" fill="#FD3E32"></ellipse><ellipse cx="41" cy="45.5" rx="4" ry="4.5" fill="#2D2C2E"></ellipse><ellipse cx="60" cy="45.5" rx="4" ry="4.5" fill="#2D2C2E"></ellipse><path d="M24.3342 72.5007C23.6024 72.5003 23.0018 71.9049 23.0856 71.1779C23.2983 69.3326 23.9533 67.5185 25.0299 65.8041C26.3627 63.6816 28.3157 61.7534 30.7773 60.1297C33.2389 58.506 36.1609 57.2185 39.3765 56.3407C42.5921 55.4629 46.0383 55.0121 49.5183 55.0139C52.9983 55.0157 56.4441 55.4702 59.6587 56.3513C62.8734 57.2325 65.7941 58.523 68.254 60.1493C70.7139 61.7757 72.6648 63.7059 73.9955 65.8298C75.0703 67.5453 75.7233 69.3601 75.9341 71.2056C76.0171 71.9327 75.4159 72.5275 74.6841 72.5271C73.9524 72.5267 73.3679 71.9308 73.2757 71.2049C73.0706 69.5893 72.4886 68.0014 71.5468 66.4982C70.3493 64.5867 68.5934 62.8495 66.3795 61.3858C64.1656 59.9221 61.537 58.7606 58.6438 57.9676C55.7506 57.1745 52.6494 56.7655 49.5174 56.7639C46.3854 56.7623 43.2838 57.168 40.3898 57.958C37.4957 58.748 34.8659 59.9068 32.6505 61.3681C30.435 62.8295 28.6774 64.5648 27.4778 66.4751C26.5344 67.9773 25.9508 69.5646 25.7439 71.18C25.651 71.9058 25.0659 72.5011 24.3342 72.5007Z" fill="#2D2C2E"></path><line x1="37.4088" y1="34.8767" x2="45.8353" y2="41.9474" stroke="black" stroke-width="2" stroke-linecap="round"></line><line x1="1" y1="-1" x2="12.2" y2="-1" transform="matrix(0.766044 -0.642788 -0.642788 -0.766044 54 41.3562)" stroke="black" stroke-width="2" stroke-linecap="round"></line></svg>