<svg width="430" height="932" viewBox="0 0 430 932" fill="none" xmlns="http://www.w3.org/2000/svg"><g clip-path="url(#clip0_276_121)"><rect width="430" height="932" fill="white"></rect><ellipse cx="197.5" cy="904" rx="332.5" ry="315" fill="#88F61A" fill-opacity="0.53"></ellipse><path d="M514 867C514 782.661 481.603 701.777 423.935 642.14C366.268 582.503 288.054 549 206.5 549C124.946 549 46.7321 582.503 -10.9353 642.14C-68.6028 701.777 -101 782.661 -101 867L-57.1812 867C-57.1812 794.679 -29.4006 725.321 20.0492 674.183C69.4991 623.044 136.567 594.315 206.5 594.315C276.433 594.315 343.501 623.044 392.951 674.183C442.401 725.321 470.181 794.679 470.181 867H514Z" fill="#32A228"></path><path d="M513 903.5C513 983.463 480.603 1060.15 422.935 1116.69C365.268 1173.23 287.054 1205 205.5 1205C123.946 1205 45.7321 1173.23 -11.9353 1116.69C-69.6028 1060.15 -102 983.463 -102 903.5L-58.1812 903.5C-58.1812 972.068 -30.4006 1037.83 19.0492 1086.31C68.4991 1134.8 135.567 1162.04 205.5 1162.04C275.433 1162.04 342.501 1134.8 391.951 1086.31C441.401 1037.83 469.181 972.068 469.181 903.5H513Z" fill="#32A228"></path><ellipse cx="178.5" cy="711.5" rx="6.5" ry="7.5" fill="#2D2C2E"></ellipse><ellipse cx="233.5" cy="711.5" rx="6.5" ry="7.5" fill="#2D2C2E"></ellipse><path d="M318.749 703.5C319.992 703.5 321.005 704.508 320.957 705.751C320.573 715.686 317.649 725.494 312.322 734.689C306.593 744.577 298.196 753.561 287.61 761.129C277.024 768.697 264.457 774.7 250.626 778.796C236.795 782.892 221.971 785 207 785C192.029 785 177.205 782.892 163.374 778.796C149.543 774.7 136.976 768.697 126.39 761.129C115.804 753.561 107.407 744.577 101.678 734.689C96.3506 725.494 93.4275 715.686 93.0435 705.751C92.9955 704.508 94.008 703.5 95.2515 703.5V703.5C96.495 703.5 97.4983 704.508 97.5483 705.751C97.931 715.263 100.737 724.653 105.838 733.457C111.341 742.954 119.406 751.584 129.574 758.853C139.742 766.122 151.813 771.888 165.097 775.822C178.382 779.756 192.621 781.781 207 781.781C221.379 781.781 235.618 779.756 248.903 775.822C262.187 771.888 274.258 766.122 284.426 758.853C294.594 751.584 302.659 742.954 308.162 733.457C313.263 724.653 316.069 715.263 316.452 705.751C316.502 704.508 317.505 703.5 318.749 703.5V703.5Z" fill="#2D2C2E"></path></g><defs><clipPath id="clip0_276_121"><rect width="430" height="932" fill="white"></rect></clipPath></defs></svg>