<svg width="100" height="102" viewBox="0 0 100 102" fill="none" xmlns="http://www.w3.org/2000/svg"><ellipse cx="50" cy="51" rx="50" ry="51" fill="#C5FF8C" fill-opacity="0.47"></ellipse><ellipse cx="50" cy="51" rx="41" ry="40" fill="#C5FF8C"></ellipse><path d="M73.0712 61.9826C74.3392 62.403 74.6767 64.0055 73.5838 64.7737C71.2412 66.4204 68.3489 67.8068 65.0548 68.8519C60.5838 70.2704 55.5277 71.0108 50.3876 70.9999C45.2475 70.9889 40.2017 70.227 35.7501 68.7895C32.4762 67.7323 29.6074 66.3367 27.2895 64.684C26.1989 63.9064 26.5481 62.3031 27.8216 61.8882C28.4439 61.6854 29.1223 61.8475 29.6233 62.2687C31.7593 64.0645 34.6113 65.5638 37.9626 66.646C41.7464 67.8679 46.0353 68.5156 50.4045 68.5249C54.7736 68.5342 59.0712 67.9048 62.8715 66.6991C66.2431 65.6294 69.1195 64.1391 71.2812 62.3484C71.7811 61.9343 72.4549 61.7784 73.0712 61.9826Z" fill="#2D2C2E"></path><path d="M33.3818 51.6279C34.0133 52.992 35.0455 54.1375 36.3617 54.9347C37.6779 55.7319 39.2254 56.1489 40.8292 56.1386C42.4329 56.1283 44.0287 55.691 45.436 54.8763C46.8432 54.0616 48.0057 52.902 48.7918 51.5287L46.9165 50.6383C46.327 51.6682 45.4551 52.5379 44.3997 53.1489C43.3442 53.76 42.1474 54.0879 40.9446 54.0957C39.7418 54.1034 38.5811 53.7906 37.594 53.1927C36.6068 52.5948 35.8327 51.7357 35.3591 50.7127L33.3818 51.6279Z" fill="black"></path><path d="M52.3818 51.6279C53.0133 52.992 54.0455 54.1375 55.3617 54.9347C56.6779 55.7319 58.2254 56.1489 59.8292 56.1386C61.4329 56.1283 63.0287 55.691 64.436 54.8763C65.8432 54.0616 67.0057 52.902 67.7918 51.5287L65.9165 50.6383C65.327 51.6682 64.4551 52.5379 63.3997 53.1489C62.3442 53.76 61.1474 54.0879 59.9446 54.0957C58.7418 54.1034 57.5811 53.7906 56.594 53.1927C55.6068 52.5948 54.8327 51.7357 54.3591 50.7127L52.3818 51.6279Z" fill="black"></path></svg>