<svg width="100" height="102" viewBox="0 0 100 102" fill="none" xmlns="http://www.w3.org/2000/svg"><ellipse cx="50" cy="51" rx="50" ry="51" fill="#FDDD32" fill-opacity="0.44"></ellipse><ellipse cx="50" cy="51" rx="41" ry="40" fill="#FDDD32"></ellipse><path d="M74.675 55.5C75.4068 55.5 76.0077 56.0951 75.9243 56.8221C75.7125 58.6675 75.0585 60.482 73.9828 62.197C72.6511 64.3202 70.6991 66.2493 68.2383 67.8744C65.7776 69.4994 62.8562 70.7884 59.6411 71.6679C56.426 72.5473 52.98 73 49.5 73C46.02 73 42.574 72.5473 39.3589 71.6679C36.1438 70.7884 33.2224 69.4994 30.7617 67.8744C28.3009 66.2493 26.3489 64.3202 25.0172 62.197C23.9415 60.482 23.2875 58.6675 23.0757 56.8221C22.9923 56.0951 23.5932 55.5 24.325 55.5V55.5C25.0568 55.5 25.6415 56.0955 25.7341 56.8214C25.9401 58.437 26.5229 60.0245 27.4655 61.5273C28.664 63.4381 30.4208 65.1744 32.6355 66.6369C34.8502 68.0995 37.4794 69.2596 40.373 70.0511C43.2666 70.8426 46.368 71.25 49.5 71.25C52.632 71.25 55.7334 70.8426 58.627 70.0511C61.5206 69.2596 64.1498 68.0995 66.3645 66.6369C68.5792 65.1744 70.336 63.4381 71.5345 61.5273C72.4771 60.0245 73.0599 58.437 73.2659 56.8214C73.3585 56.0955 73.9432 55.5 74.675 55.5V55.5Z" fill="#2D2C2E"></path><ellipse cx="41" cy="51.5" rx="4" ry="4.5" fill="#2D2C2E"></ellipse><ellipse cx="60" cy="51.5" rx="4" ry="4.5" fill="#2D2C2E"></ellipse></svg>