<svg width="100" height="102" viewBox="0 0 100 102" fill="none" xmlns="http://www.w3.org/2000/svg"><ellipse cx="50" cy="51" rx="50" ry="51" fill="#34E225" fill-opacity="0.4"></ellipse><ellipse cx="50" cy="51" rx="41" ry="40" fill="#34E225"></ellipse><path d="M74.0305 67.7572C75.2993 67.3493 75.6301 65.7461 74.5265 64.9987C72.1941 63.419 69.3221 62.0882 66.0548 61.083C61.5838 59.7075 56.5277 58.9895 51.3876 59.0001C46.2475 59.0107 41.2017 59.7496 36.7501 61.1436C33.5034 62.1602 30.655 63.4996 28.3473 65.0848C27.2456 65.8415 27.5878 67.446 28.8623 67.8486C29.4618 68.038 30.1123 67.8849 30.5988 67.4867C32.7376 65.7365 35.5985 64.2754 38.9626 63.222C42.7464 62.0372 47.0353 61.4091 51.4045 61.4001C55.7736 61.3911 60.0712 62.0014 63.8715 63.1705C67.2561 64.2118 70.1416 65.6641 72.3061 67.4094C72.7914 67.8007 73.437 67.9479 74.0305 67.7572Z" fill="#2D2C2E"></path><line x1="37.248" y1="42.3347" x2="47.7708" y2="45.5394" stroke="black" stroke-width="2" stroke-linecap="round"></line><line x1="1" y1="-1" x2="12.2" y2="-1" transform="matrix(0.93817 -0.346173 -0.346173 -0.93817 54 42.5695)" stroke="black" stroke-width="2" stroke-linecap="round"></line><ellipse cx="44" cy="50.5" rx="4" ry="4.5" fill="#2D2C2E"></ellipse><path d="M64 50.5C64 52.9853 62.2091 55 60 55C57.7909 55 56 52.9853 56 50.5C56 48.0147 57.7909 46 60 46C62.2091 46 64 48.0147 64 50.5Z" fill="#2D2C2E"></path></svg>