<svg width="100" height="102" viewBox="0 0 100 102" fill="none" xmlns="http://www.w3.org/2000/svg"><ellipse cx="50" cy="51" rx="50" ry="51" fill="#FA71B3" fill-opacity="0.4"></ellipse><ellipse cx="50" cy="51" rx="41" ry="40" fill="#FA71B3"></ellipse><ellipse cx="27.5" cy="58.5" rx="7.5" ry="4.5" fill="#FD3E32"></ellipse><ellipse cx="73.5" cy="59.5" rx="7.5" ry="4.5" fill="#FD3E32"></ellipse><path d="M69.05 60.5C69.5747 60.5 70.0042 60.9261 69.9593 61.4488C69.8236 63.0284 69.3496 64.5825 68.5537 66.0489C67.5989 67.8081 66.1993 69.4066 64.435 70.753C62.6707 72.0995 60.5762 73.1676 58.271 73.8963C55.9658 74.6249 53.4951 75 51 75C48.5049 75 46.0342 74.6249 43.729 73.8963C41.4238 73.1676 39.3293 72.0995 37.565 70.753C35.8007 69.4066 34.4011 67.8081 33.4463 66.0489C32.6504 64.5825 32.1765 63.0284 32.0407 61.4488C31.9958 60.9261 32.4253 60.5 32.95 60.5C33.4747 60.5 33.8954 60.9263 33.9452 61.4486C34.0779 62.8376 34.5012 64.2036 35.2017 65.494C36.061 67.0773 37.3206 68.5159 38.9085 69.7277C40.4964 70.9395 42.3814 71.9008 44.4561 72.5566C46.5308 73.2125 48.7544 73.55 51 73.55C53.2456 73.55 55.4692 73.2125 57.5439 72.5566C59.6186 71.9008 61.5036 70.9395 63.0915 69.7277C64.6794 68.5159 65.939 67.0773 66.7983 65.494C67.4988 64.2036 67.9221 62.8376 68.0548 61.4486C68.1046 60.9263 68.5253 60.5 69.05 60.5Z" fill="#2D2C2E"></path><ellipse cx="41" cy="52.5" rx="4" ry="4.5" fill="#2D2C2E"></ellipse><ellipse cx="60" cy="52.5" rx="4" ry="4.5" fill="#2D2C2E"></ellipse></svg>