<svg width="430" height="564" viewBox="0 0 430 564" fill="none" xmlns="http://www.w3.org/2000/svg"><ellipse cx="208.5" cy="355" rx="332.5" ry="315" fill="#88F61A" fill-opacity="0.53"></ellipse><path d="M525 318C525 233.661 492.603 152.777 434.935 93.1401C377.268 33.5035 299.054 6.36741e-06 217.5 0C135.946 -6.3674e-06 57.7321 33.5035 0.0646896 93.14C-57.6027 152.777 -90 233.661 -90 318L-46.1812 318C-46.1812 245.679 -18.4006 176.321 31.0492 125.183C80.4991 74.0442 147.567 45.315 217.5 45.315C287.433 45.315 354.501 74.0442 403.951 125.183C453.401 176.321 481.181 245.679 481.181 318H525Z" fill="#32A228"></path><path d="M524 354.5C524 434.463 491.603 511.15 433.935 567.693C376.268 624.235 298.054 656 216.5 656C134.946 656 56.7321 624.235 -0.93531 567.693C-58.6027 511.151 -91 434.463 -91 354.5H-47.1812C-47.1812 423.068 -19.4006 488.828 30.0492 537.313C79.4991 585.798 146.567 613.036 216.5 613.036C286.433 613.036 353.501 585.798 402.951 537.313C452.401 488.828 480.181 423.068 480.181 354.5H524Z" fill="#32A228"></path><ellipse cx="189.5" cy="162.5" rx="6.5" ry="7.5" fill="#2D2C2E"></ellipse><ellipse cx="244.5" cy="162.5" rx="6.5" ry="7.5" fill="#2D2C2E"></ellipse><path d="M329.749 154.5C330.992 154.5 332.005 155.508 331.957 156.751C331.573 166.686 328.649 176.494 323.322 185.689C317.593 195.577 309.196 204.561 298.61 212.129C288.024 219.697 275.457 225.7 261.626 229.796C247.795 233.892 232.971 236 218 236C203.029 236 188.205 233.892 174.374 229.796C160.543 225.7 147.976 219.697 137.39 212.129C126.804 204.561 118.407 195.577 112.678 185.689C107.351 176.494 104.427 166.686 104.043 156.751C103.995 155.508 105.008 154.5 106.251 154.5C107.495 154.5 108.498 155.508 108.548 156.751C108.931 166.263 111.737 175.653 116.838 184.457C122.341 193.954 130.406 202.584 140.574 209.853C150.742 217.122 162.813 222.888 176.097 226.822C189.382 230.756 203.621 232.781 218 232.781C232.379 232.781 246.618 230.756 259.903 226.822C273.187 222.888 285.258 217.122 295.426 209.853C305.594 202.584 313.659 193.954 319.162 184.457C324.263 175.653 327.069 166.263 327.452 156.751C327.502 155.508 328.505 154.5 329.749 154.5Z" fill="#2D2C2E"></path></svg>