<svg width="100" height="102" viewBox="0 0 100 102" fill="none" xmlns="http://www.w3.org/2000/svg"><ellipse cx="50" cy="51" rx="50" ry="51" fill="#6911F9" fill-opacity="0.4"></ellipse><ellipse cx="50" cy="51" rx="41" ry="40" fill="#6911F9"></ellipse><ellipse cx="22.5" cy="63.5" rx="7.5" ry="4.5" fill="#FD3E32" fill-opacity="0.5"></ellipse><ellipse cx="77.5" cy="63.5" rx="7.5" ry="4.5" fill="#FD3E32" fill-opacity="0.5"></ellipse><path d="M77.9432 64C77.9432 67.5983 75.465 72.1934 72.8195 74.5744C69.8407 77.2553 65.3257 71.0051 63.7168 69.3962C62.0166 67.696 58.7693 62.1792 56.3584 66.3983C55.2796 68.2861 51.4351 72.0186 49.4905 73.0482C44.2097 75.8439 44.8623 70.1556 41.6414 68.1425C38.0418 65.8928 37.6606 68.0898 35.3186 70.4318C30.1686 75.5819 23 70.7233 23 64" stroke="black" stroke-width="2" stroke-linecap="round"></path><ellipse cx="41" cy="50.5" rx="4" ry="4.5" fill="#2D2C2E"></ellipse><ellipse cx="60" cy="50.5" rx="4" ry="4.5" fill="#2D2C2E"></ellipse></svg>