<svg width="100" height="102" viewBox="0 0 100 102" fill="none" xmlns="http://www.w3.org/2000/svg"><ellipse cx="50" cy="51" rx="50" ry="51" fill="#FBBB16" fill-opacity="0.4"></ellipse><ellipse cx="50" cy="51" rx="41" ry="40" fill="#FBBB16"></ellipse><ellipse cx="41" cy="46.5" rx="4" ry="4.5" fill="#2D2C2E"></ellipse><ellipse cx="60" cy="46.5" rx="4" ry="4.5" fill="#2D2C2E"></ellipse><path d="M77.9432 66.2342C77.9432 62.6359 75.465 58.0408 72.8195 55.6598C69.8407 52.9789 65.3257 59.2291 63.7168 60.838C62.0166 62.5382 58.7693 68.0549 56.3584 63.8358C55.2796 61.9481 51.4351 58.2155 49.4905 57.186C44.2097 54.3903 44.8623 60.0786 41.6414 62.0916C38.0418 64.3414 37.6606 62.1444 35.3186 59.8023C30.1686 54.6523 23 59.5108 23 66.2342" stroke="black" stroke-width="2" stroke-linecap="round"></path></svg>