<svg width="100" height="102" viewBox="0 0 100 102" fill="none" xmlns="http://www.w3.org/2000/svg"><ellipse cx="50" cy="51" rx="50" ry="51" fill="#287FE5" fill-opacity="0.4"></ellipse><ellipse cx="50" cy="51" rx="41" ry="40" fill="#287FE5"></ellipse><ellipse cx="41" cy="42.5" rx="4" ry="4.5" fill="#2D2C2E"></ellipse><ellipse cx="60" cy="42.5" rx="4" ry="4.5" fill="#2D2C2E"></ellipse><path d="M24.3342 69.5007C23.6024 69.5003 23.0018 68.9049 23.0856 68.1779C23.2983 66.3326 23.9533 64.5185 25.0299 62.8041C26.3627 60.6816 28.3157 58.7534 30.7773 57.1297C33.2389 55.506 36.1609 54.2185 39.3765 53.3407C42.5921 52.4629 46.0383 52.0121 49.5183 52.0139C52.9983 52.0157 56.4441 52.4702 59.6587 53.3513C62.8734 54.2325 65.7941 55.523 68.254 57.1493C70.7139 58.7757 72.6648 60.7059 73.9955 62.8298C75.0703 64.5453 75.7233 66.3601 75.9341 68.2056C76.0171 68.9327 75.4159 69.5275 74.6841 69.5271C73.9524 69.5267 73.3679 68.9308 73.2757 68.2049C73.0706 66.5893 72.4886 65.0014 71.5468 63.4982C70.3493 61.5867 68.5934 59.8495 66.3795 58.3858C64.1656 56.9221 61.537 55.7606 58.6438 54.9676C55.7506 54.1745 52.6494 53.7655 49.5174 53.7639C46.3854 53.7623 43.2838 54.168 40.3898 54.958C37.4957 55.748 34.8659 56.9068 32.6505 58.3681C30.435 59.8295 28.6774 61.5648 27.4778 63.4751C26.5344 64.9773 25.9508 66.5646 25.7439 68.18C25.651 68.9058 25.0659 69.5011 24.3342 69.5007Z" fill="#2D2C2E"></path></svg>